<svg width="21" height="25" viewBox="0 0 21 25" fill="none" xmlns="http://www.w3.org/2000/svg">
<path d="M20.0353 18.983C19.6849 19.7939 19.2701 20.5403 18.7895 21.2265C18.1344 22.162 17.598 22.8096 17.1847 23.1691C16.5439 23.7594 15.8573 24.0617 15.1221 24.0789C14.5943 24.0789 13.9578 23.9284 13.2169 23.6233C12.4735 23.3196 11.7904 23.1691 11.1658 23.1691C10.5107 23.1691 9.80808 23.3196 9.05657 23.6233C8.30392 23.9284 7.6976 24.0875 7.23402 24.1032C6.529 24.1333 5.82627 23.8224 5.12483 23.1691C4.67713 22.778 4.11715 22.1076 3.44632 21.1578C2.72657 20.1435 2.13483 18.9673 1.67126 17.6264C1.17478 16.178 0.925903 14.7754 0.925903 13.4176C0.925903 11.8622 1.26146 10.5207 1.93358 9.39655C2.46181 8.49357 3.16454 7.78127 4.04406 7.25837C4.92358 6.73546 5.87391 6.469 6.89732 6.45195C7.4573 6.45195 8.19164 6.62544 9.1042 6.9664C10.0142 7.30851 10.5985 7.482 10.8547 7.482C11.0462 7.482 11.6953 7.27914 12.7956 6.87471C13.8362 6.49966 14.7145 6.34436 15.4339 6.40553C17.3835 6.56312 18.8482 7.33286 19.8222 8.71964C18.0786 9.77777 17.2161 11.2598 17.2333 13.161C17.249 14.6419 17.7854 15.8743 18.8396 16.8527C19.3173 17.3069 19.8508 17.6579 20.4444 17.9071C20.3157 18.2811 20.1798 18.6392 20.0353 18.983ZM15.5641 1.36043C15.5641 2.52115 15.1407 3.60491 14.2968 4.60803C13.2784 5.80054 12.0466 6.48963 10.7108 6.38089C10.6937 6.24164 10.6839 6.09508 10.6839 5.94108C10.6839 4.82679 11.1682 3.63428 12.0283 2.65924C12.4577 2.16556 13.0038 1.75507 13.666 1.42762C14.3268 1.10505 14.9519 0.926666 15.5398 0.896118C15.5569 1.05129 15.5641 1.20647 15.5641 1.36042V1.36043Z" fill="black"/>
</svg>
