<svg width="16" height="31" viewBox="0 0 16 31" fill="none" xmlns="http://www.w3.org/2000/svg">
<path d="M14.1931 8.65911V13.2046H0.727228V8.65911H14.1931ZM3.80961 30.4773V7.08241C3.80961 5.50097 4.11738 4.18941 4.73291 3.14775C5.35791 2.10608 6.21018 1.32483 7.28973 0.803998C8.36927 0.283164 9.5956 0.0227475 10.9687 0.0227475C11.8967 0.0227475 12.7443 0.0937708 13.5113 0.235817C14.2878 0.377862 14.8655 0.505703 15.2443 0.61934L14.1647 5.16479C13.928 5.08904 13.6344 5.01801 13.284 4.95173C12.9431 4.88544 12.5928 4.85229 12.2329 4.85229C11.3428 4.85229 10.7225 5.06063 10.3721 5.47729C10.0217 5.88449 9.84655 6.45741 9.84655 7.19604V30.4773H3.80961Z" fill="#3B5999"/>
</svg>
