<svg width="24" height="24" viewBox="0 0 24 24" fill="none" xmlns="http://www.w3.org/2000/svg">
<g clip-path="url(#clip0_222_30105)">
<path d="M5.54664 14.3046L4.73971 17.317L1.79041 17.3794C0.909006 15.7446 0.409058 13.8741 0.409058 11.8865C0.409058 9.96441 0.876497 8.15188 1.70507 6.55591H1.7057L4.3314 7.03729L5.48162 9.64724C5.24088 10.3491 5.10967 11.1025 5.10967 11.8865C5.10976 12.7373 5.26388 13.5525 5.54664 14.3046Z" fill="#FBBB00"/>
<path d="M23.3883 9.72083C23.5214 10.422 23.5908 11.1461 23.5908 11.8862C23.5908 12.716 23.5036 13.5255 23.3374 14.3063C22.7731 16.9632 21.2988 19.2833 19.2564 20.9252L19.2558 20.9245L15.9485 20.7558L15.4805 17.8338C16.8357 17.039 17.8948 15.7952 18.4527 14.3063H12.2548V9.72083H18.5431H23.3883Z" fill="#518EF8"/>
<path d="M19.2556 20.9249L19.2563 20.9255C17.2699 22.5221 14.7466 23.4774 11.9998 23.4774C7.58574 23.4774 3.74802 21.0102 1.79028 17.3794L5.54651 14.3047C6.52535 16.9171 9.04543 18.7767 11.9998 18.7767C13.2697 18.7767 14.4594 18.4335 15.4803 17.8342L19.2556 20.9249Z" fill="#28B446"/>
<path d="M19.3984 2.96392L15.6435 6.03804C14.5869 5.37763 13.338 4.99613 12 4.99613C8.97869 4.99613 6.41148 6.94109 5.48168 9.64716L1.70571 6.55583H1.70508C3.63415 2.83655 7.52027 0.295471 12 0.295471C14.8124 0.295471 17.391 1.29727 19.3984 2.96392Z" fill="#F14336"/>
</g>
<defs>
<clipPath id="clip0_222_30105">
<rect width="23.1818" height="23.1818" fill="white" transform="translate(0.409058 0.295471)"/>
</clipPath>
</defs>
</svg>
