<svg width="126" height="46" viewBox="0 0 126 46" fill="none" xmlns="http://www.w3.org/2000/svg">
<g filter="url(#filter0_d)">
<path d="M4.96446 20.1555C5.2345 17.0691 6.27699 14.2306 7.88127 11.8168L5.08512 9.01788C2.88416 12.0858 1.43777 15.7753 1.08411 19.8161C0.613185 25.1986 2.14405 30.3057 5.06852 34.3778L7.85956 31.5869C5.71712 28.3345 4.59802 24.3452 4.96446 20.1555ZM40.2843 9.09257L37.492 11.8983C39.6208 15.1345 40.7129 19.0913 40.3488 23.2512C40.0815 26.3079 39.0567 29.1178 37.4845 31.5044L40.2809 34.3033C42.4508 31.2477 43.8636 27.6002 44.2145 23.5894C44.6826 18.2367 43.1643 13.1608 40.2843 9.09257Z" fill="#F5F6F9"/>
<path d="M39.2853 35.5833C38.4641 36.5783 37.5442 37.5044 36.5589 38.3196L36.5427 38.3332C36.1384 38.6735 35.7207 38.9976 35.2891 39.3053C31.2273 42.2402 26.1327 43.7928 20.7506 43.3218C16.7513 42.972 13.0999 41.5558 10.0557 39.3664C9.61815 39.0576 9.19702 38.7352 8.79313 38.3845C8.79313 38.3845 8.79313 38.3845 8.77824 38.3832C7.7866 37.5602 6.86349 36.6381 6.03613 35.6492L8.79484 32.8856L9.66496 32.0153L19.929 21.7202L22.6713 18.9702L32.6564 8.95107L33.757 7.84538C33.3369 7.5083 32.9158 7.18591 32.4621 6.89077C30.056 5.28308 27.2409 4.24038 24.1635 3.97119C20.0005 3.60688 16.0531 4.71896 12.825 6.85544C12.38 7.14719 11.9485 7.45489 11.5444 7.79515L11.5282 7.80877C10.5293 8.60782 9.6107 9.51902 8.80441 10.5153L6.05018 7.75025C6.86987 6.77011 7.78852 5.85891 8.77505 5.02879L8.79122 5.01517C9.19553 4.67491 9.61346 4.35082 10.0448 4.04311C14.119 1.13928 19.1961 -0.384768 24.5484 0.0835985C28.5775 0.435991 32.2425 1.86854 35.3004 4.07418C35.7377 4.38274 36.1578 4.72002 36.5627 5.05603C37.5531 5.89381 38.4613 6.81458 39.2887 7.80345L36.53 10.567L35.2155 11.8945L25.4458 21.677L22.7033 24.4267L12.6199 34.5425L12.6062 34.5263L11.5544 35.5911C11.5544 35.5911 11.5544 35.5911 11.568 35.6073C11.9879 35.9446 12.4105 36.2519 12.8639 36.547C15.2417 38.1373 18.0594 39.1502 21.1073 39.4168C25.2998 39.7835 29.2634 38.658 32.5089 36.493C32.9541 36.2012 33.3867 35.8786 33.7898 35.5533L33.8059 35.5396C34.8059 34.7257 35.726 33.7996 36.5336 32.7884L39.2853 35.5833Z" fill="#F5F6F9"/>
<g filter="url(#filter1_d)">
<path d="M10.4361 20.6343C10.5823 18.9642 11.0639 17.3987 11.7863 15.9895L8.93439 13.1408C7.62761 15.2352 6.78535 17.6704 6.55574 20.2946C6.23229 23.9924 7.16754 27.5149 9.02632 30.4119L11.8672 27.5655C10.7581 25.5152 10.2182 23.1242 10.4361 20.6343ZM32.5008 29.0551L35.2674 31.8512L35.2687 31.8363L32.5008 29.0551ZM36.3556 13.0759L33.5135 15.9372C34.5941 17.9701 35.107 20.3287 34.8916 22.7888C34.7352 24.578 34.2011 26.2291 33.3829 27.7049L36.2199 30.5523C37.6224 28.3914 38.5319 25.8718 38.772 23.1283C39.0794 19.4441 38.1551 15.9678 36.3556 13.0759Z" fill="#F5F6F9"/>
<path d="M35.2689 31.8363C34.4613 32.8476 33.5278 33.7575 32.4993 34.554C32.4993 34.554 32.4978 34.5689 32.4832 34.5676C32.0503 34.8902 31.6177 35.213 31.1591 35.4884C28.2919 37.2659 24.8574 38.1673 21.2445 37.8513C18.5832 37.6183 16.1267 36.7575 14.0119 35.4156L16.8541 32.5541C18.2698 33.324 19.8753 33.81 21.5701 33.9584C23.9787 34.169 26.2999 33.666 28.2936 32.6235C28.7807 32.3656 29.2391 32.0902 29.7017 31.7699C29.7017 31.7699 29.7017 31.7699 29.7179 31.7563L13.3289 15.3133L13.345 15.2997L12.6428 14.5921L9.86133 11.7947C10.6553 10.7673 11.5605 9.83993 12.5592 9.04088C12.9784 8.70189 13.4112 8.37908 13.8709 8.08882C16.7945 6.1811 20.3397 5.21414 24.0713 5.54058C26.7623 5.77614 29.2459 6.66947 31.3892 8.02881L28.5483 10.8754C27.1043 10.0881 25.4866 9.57074 23.7321 9.41731C21.2047 9.19622 18.7731 9.76481 16.7094 10.9214C16.2359 11.1954 15.776 11.4857 15.3432 11.8085L31.7458 28.2679L31.7296 28.2816L32.5008 29.0551L35.2689 31.8363Z" fill="#F5F6F9"/>
</g>
<path d="M23.2492 14.9341C23.6207 14.9666 23.975 15.0277 24.3266 15.1186L24.4087 15.0356L23.2492 14.9341ZM32.2848 17.137L29.2622 20.1778C29.4128 20.8522 29.4705 21.5633 29.4067 22.2939C29.3714 22.6965 29.3064 23.0966 29.1981 23.4777L32.1871 26.4736C32.7684 25.3075 33.1508 24.0188 33.2721 22.632C33.443 20.6788 33.0683 18.7981 32.2848 17.137ZM24.0978 28.3501C23.4416 28.488 22.7634 28.5337 22.0645 28.4727C21.7375 28.4439 21.4278 28.3869 21.1197 28.3148L20.9863 28.4684L18.0957 31.3707C19.2026 31.9032 20.4171 32.2349 21.7256 32.3494C23.6582 32.5184 25.5029 32.1538 27.1421 31.3959L24.0978 28.3501ZM15.907 21.1129C15.9332 20.8147 15.9728 20.5326 16.0434 20.2383L16.0273 20.2519L12.9979 17.2074C12.4972 18.3054 12.1686 19.4937 12.0565 20.776C11.8803 22.7888 12.2674 24.7008 13.0928 26.3955L15.9996 23.4798L16.0979 23.3832C15.9066 22.6603 15.8392 21.8881 15.907 21.1129ZM23.5882 11.0576C22.9489 11.0016 22.3342 11.0078 21.7156 11.0588C20.3566 11.1803 19.0809 11.5495 17.9058 12.1379L20.839 15.0839C20.839 15.0839 20.8486 15.1448 20.8946 15.1337C21.6466 14.9292 22.4314 14.8626 23.2492 14.9341C23.6207 14.9666 23.975 15.0277 24.3266 15.1186L24.4087 15.0356L27.3317 12.1062C26.1977 11.5412 24.9262 11.1746 23.5882 11.0576Z" fill="#F5F6F9"/>
</g>
<g filter="url(#filter2_d)">
<path d="M61.8658 19.15L57.7098 13.4306L53.6133 19.15H51.3374L56.5422 12.0453L51.654 5.29688H53.9101L57.789 10.6204L61.6283 5.29688H63.7854L58.8972 11.9859L64.1416 19.15H61.8658ZM75.4929 8.66121V19.15H73.6722V17.4876C73.25 18.0681 72.7156 18.5101 72.0692 18.8135C71.4227 19.117 70.7102 19.2687 69.9318 19.2687C68.9159 19.2687 68.0056 19.0444 67.2008 18.5959C66.396 18.1473 65.7627 17.5206 65.3009 16.7158C64.8524 15.8978 64.6281 14.9611 64.6281 13.9056C64.6281 12.8501 64.8524 11.92 65.3009 11.1152C65.7627 10.3104 66.396 9.6837 67.2008 9.23512C68.0056 8.78654 68.9159 8.56225 69.9318 8.56225C70.6839 8.56225 71.3765 8.70738 72.0098 8.99764C72.6431 9.2747 73.1708 9.69029 73.593 10.2444V8.66121H75.4929ZM70.0902 17.6063C70.7498 17.6063 71.3501 17.4546 71.8911 17.1512C72.432 16.8345 72.8542 16.3991 73.1576 15.845C73.4611 15.2777 73.6128 14.6312 73.6128 13.9056C73.6128 13.18 73.4611 12.5401 73.1576 11.9859C72.8542 11.4186 72.432 10.9832 71.8911 10.6798C71.3501 10.3764 70.7498 10.2246 70.0902 10.2246C69.4173 10.2246 68.8104 10.3764 68.2695 10.6798C67.7417 10.9832 67.3195 11.4186 67.0029 11.9859C66.6994 12.5401 66.5477 13.18 66.5477 13.9056C66.5477 14.6312 66.6994 15.2777 67.0029 15.845C67.3195 16.3991 67.7417 16.8345 68.2695 17.1512C68.8104 17.4546 69.4173 17.6063 70.0902 17.6063ZM84.688 8.56225C86.0206 8.56225 87.076 8.95146 87.8545 9.72987C88.6461 10.4951 89.0419 11.6231 89.0419 13.114V19.15H87.142V13.3317C87.142 12.3158 86.8979 11.5506 86.4098 11.036C85.9216 10.5215 85.2224 10.2642 84.312 10.2642C83.2829 10.2642 82.4715 10.5677 81.8778 11.1746C81.2841 11.7683 80.9873 12.6258 80.9873 13.7473V19.15H79.0874V8.66121H80.9081V10.2444C81.2907 9.70348 81.8053 9.28789 82.4518 8.99764C83.1114 8.70738 83.8568 8.56225 84.688 8.56225ZM102.511 4.4657V19.15H100.69V17.4876C100.268 18.0681 99.7339 18.5101 99.0874 18.8135C98.4409 19.117 97.7285 19.2687 96.95 19.2687C95.9342 19.2687 95.0238 19.0444 94.219 18.5959C93.4142 18.1473 92.7809 17.5206 92.3191 16.7158C91.8706 15.8978 91.6463 14.9611 91.6463 13.9056C91.6463 12.8501 91.8706 11.92 92.3191 11.1152C92.7809 10.3104 93.4142 9.6837 94.219 9.23512C95.0238 8.78654 95.9342 8.56225 96.95 8.56225C97.7021 8.56225 98.3947 8.70738 99.028 8.99764C99.6613 9.2747 100.189 9.69029 100.611 10.2444V4.4657H102.511ZM97.1084 17.6063C97.768 17.6063 98.3683 17.4546 98.9093 17.1512C99.4502 16.8345 99.8724 16.3991 100.176 15.845C100.479 15.2777 100.631 14.6312 100.631 13.9056C100.631 13.18 100.479 12.5401 100.176 11.9859C99.8724 11.4186 99.4502 10.9832 98.9093 10.6798C98.3683 10.3764 97.768 10.2246 97.1084 10.2246C96.4355 10.2246 95.8286 10.3764 95.2877 10.6798C94.7599 10.9832 94.3377 11.4186 94.0211 11.9859C93.7177 12.5401 93.5659 13.18 93.5659 13.9056C93.5659 14.6312 93.7177 15.2777 94.0211 15.845C94.3377 16.3991 94.7599 16.8345 95.2877 17.1512C95.8286 17.4546 96.4355 17.6063 97.1084 17.6063ZM110.835 17.6063C112.089 17.6063 113.098 17.1842 113.863 16.3398L114.892 17.5668C114.431 18.1209 113.844 18.5431 113.131 18.8333C112.432 19.1236 111.647 19.2687 110.776 19.2687C109.668 19.2687 108.685 19.0444 107.827 18.5959C106.97 18.1341 106.304 17.4942 105.829 16.6762C105.367 15.8582 105.136 14.9347 105.136 13.9056C105.136 12.8897 105.36 11.9728 105.809 11.1548C106.271 10.3368 106.897 9.70349 107.689 9.25491C108.494 8.79314 109.397 8.56225 110.4 8.56225C111.35 8.56225 112.214 8.77995 112.993 9.21533C113.771 9.63752 114.391 10.2378 114.853 11.0162C115.315 11.7946 115.552 12.6918 115.565 13.7077L107.234 15.3305C107.498 16.0561 107.94 16.6168 108.56 17.0126C109.193 17.4084 109.952 17.6063 110.835 17.6063ZM110.4 10.1653C109.74 10.1653 109.147 10.317 108.619 10.6204C108.104 10.9239 107.702 11.3527 107.412 11.9068C107.122 12.4477 106.976 13.081 106.976 13.8066V14.0045L113.685 12.738C113.514 11.9728 113.131 11.3527 112.537 10.8777C111.944 10.4027 111.231 10.1653 110.4 10.1653ZM120.044 10.4225C120.374 9.81563 120.862 9.35386 121.508 9.03722C122.155 8.72058 122.94 8.56225 123.863 8.56225V10.4027C123.758 10.3895 123.613 10.3829 123.428 10.3829C122.399 10.3829 121.587 10.693 120.994 11.3131C120.413 11.92 120.123 12.7907 120.123 13.9254V19.15H118.223V8.66121H120.044V10.4225Z" fill="#F5F6F9"/>
</g>
<g filter="url(#filter3_d)">
<path d="M58.0162 38.4601C56.9739 38.4601 55.9646 38.3018 54.9883 37.9851C54.0251 37.6553 53.2665 37.2331 52.7124 36.7186L53.4446 35.1749C53.9724 35.6499 54.6452 36.0391 55.4632 36.3426C56.2944 36.6328 57.1454 36.7779 58.0162 36.7779C59.164 36.7779 60.0216 36.5866 60.5889 36.204C61.1562 35.8082 61.4399 35.2871 61.4399 34.6406C61.4399 34.1656 61.2815 33.783 60.9649 33.4928C60.6614 33.1893 60.2788 32.9584 59.8171 32.8001C59.3685 32.6418 58.7286 32.4637 57.8974 32.2658C56.8551 32.0151 56.0108 31.7644 55.3643 31.5138C54.731 31.2631 54.1835 30.8805 53.7217 30.3659C53.2731 29.8382 53.0488 29.1323 53.0488 28.2484C53.0488 27.5096 53.2401 26.8433 53.6227 26.2496C54.0185 25.6559 54.6123 25.1809 55.4039 24.8247C56.1955 24.4685 57.1784 24.2904 58.3526 24.2904C59.1706 24.2904 59.9754 24.3959 60.767 24.607C61.5586 24.8181 62.2381 25.1215 62.8054 25.5173L62.1523 27.1006C61.5718 26.7311 60.9517 26.4541 60.292 26.2694C59.6323 26.0715 58.9859 25.9725 58.3526 25.9725C57.2312 25.9725 56.3868 26.177 55.8195 26.586C55.2653 26.995 54.9883 27.5227 54.9883 28.1692C54.9883 28.6442 55.1466 29.0334 55.4632 29.3368C55.7799 29.6271 56.1691 29.858 56.6308 30.0295C57.1058 30.1878 57.7457 30.3593 58.5505 30.544C59.5928 30.7947 60.4306 31.0454 61.0638 31.2961C61.6971 31.5467 62.2381 31.9293 62.6866 32.4439C63.1484 32.9584 63.3793 33.6511 63.3793 34.5219C63.3793 35.2475 63.1814 35.9138 62.7856 36.5207C62.3898 37.1144 61.7895 37.5893 60.9847 37.9456C60.1799 38.2886 59.1904 38.4601 58.0162 38.4601ZM70.7233 36.7581C71.9767 36.7581 72.986 36.336 73.7512 35.4916L74.7803 36.7186C74.3185 37.2727 73.7314 37.6949 73.019 37.9851C72.3197 38.2754 71.5347 38.4205 70.664 38.4205C69.5557 38.4205 68.5728 38.1962 67.7152 37.7477C66.8577 37.2859 66.1914 36.646 65.7164 35.828C65.2547 35.01 65.0238 34.0865 65.0238 33.0574C65.0238 32.0415 65.2481 31.1246 65.6966 30.3066C66.1584 29.4886 66.7851 28.8553 67.5767 28.4067C68.3815 27.9449 69.2853 27.7141 70.288 27.7141C71.2379 27.7141 72.1021 27.9317 72.8805 28.3671C73.6589 28.7893 74.279 29.3896 74.7407 30.168C75.2025 30.9464 75.44 31.8436 75.4532 32.8595L67.1215 34.4823C67.3854 35.2079 67.8274 35.7686 68.4475 36.1644C69.0808 36.5602 69.8394 36.7581 70.7233 36.7581ZM70.288 29.3171C69.6283 29.3171 69.0346 29.4688 68.5068 29.7722C67.9923 30.0757 67.5899 30.5045 67.2996 31.0586C67.0094 31.5995 66.8643 32.2328 66.8643 32.9584V33.1563L73.5731 31.8898C73.4016 31.1246 73.019 30.5045 72.4253 30.0295C71.8316 29.5545 71.1191 29.3171 70.288 29.3171ZM81.2972 38.4205C80.2813 38.4205 79.4963 38.1435 78.9422 37.5893C78.3881 37.022 78.111 36.2304 78.111 35.2145V23.6175H80.0109V35.0562C80.0109 35.6235 80.1428 36.0589 80.4067 36.3623C80.6837 36.6658 81.0927 36.8175 81.6337 36.8175C81.9635 36.8175 82.2735 36.7515 82.5638 36.6196L82.6627 38.183C82.2274 38.3414 81.7722 38.4205 81.2972 38.4205ZM88.7685 38.4205C87.7263 38.4205 86.7895 38.1896 85.9583 37.7279C85.1272 37.2661 84.4741 36.6328 83.9991 35.828C83.5373 35.01 83.3065 34.0865 83.3065 33.0574C83.3065 32.0283 83.5373 31.1114 83.9991 30.3066C84.4741 29.4886 85.1272 28.8553 85.9583 28.4067C86.7895 27.9449 87.7263 27.7141 88.7685 27.7141C89.8108 27.7141 90.7409 27.9449 91.5589 28.4067C92.3901 28.8553 93.0366 29.4886 93.4984 30.3066C93.9733 31.1114 94.2108 32.0283 94.2108 33.0574C94.2108 34.0865 93.9733 35.01 93.4984 35.828C93.0366 36.6328 92.3901 37.2661 91.5589 37.7279C90.7409 38.1896 89.8108 38.4205 88.7685 38.4205ZM88.7685 36.7581C89.4414 36.7581 90.0417 36.6064 90.5694 36.303C91.1104 35.9863 91.5326 35.5509 91.836 34.9968C92.1395 34.4295 92.2912 33.783 92.2912 33.0574C92.2912 32.3318 92.1395 31.6919 91.836 31.1377C91.5326 30.5704 91.1104 30.135 90.5694 29.8316C90.0417 29.5282 89.4414 29.3764 88.7685 29.3764C88.0957 29.3764 87.4888 29.5282 86.9478 29.8316C86.4201 30.135 85.9979 30.5704 85.6813 31.1377C85.3778 31.6919 85.2261 32.3318 85.2261 33.0574C85.2261 33.783 85.3778 34.4295 85.6813 34.9968C85.9979 35.5509 86.4201 35.9863 86.9478 36.303C87.4888 36.6064 88.0957 36.7581 88.7685 36.7581ZM98.6589 29.5743C98.9888 28.9674 99.4769 28.5057 100.123 28.189C100.77 27.8724 101.555 27.7141 102.478 27.7141V29.5545C102.373 29.5413 102.228 29.5347 102.043 29.5347C101.014 29.5347 100.203 29.8448 99.6088 30.4649C99.0283 31.0718 98.7381 31.9425 98.7381 33.0772V38.3018H96.8382V27.813H98.6589V29.5743ZM117.941 27.7141C119.26 27.7141 120.303 28.0967 121.068 28.8619C121.846 29.6271 122.235 30.7617 122.235 32.2658V38.3018H120.336V32.4835C120.336 31.4676 120.098 30.7024 119.623 30.1878C119.161 29.6733 118.495 29.416 117.624 29.416C116.661 29.416 115.896 29.7195 115.329 30.3264C114.761 30.9201 114.478 31.7776 114.478 32.8991V38.3018H112.578V32.4835C112.578 31.4676 112.34 30.7024 111.865 30.1878C111.404 29.6733 110.737 29.416 109.867 29.416C108.903 29.416 108.138 29.7195 107.571 30.3264C107.004 30.9201 106.72 31.7776 106.72 32.8991V38.3018H104.82V27.813H106.641V29.3764C107.023 28.8355 107.525 28.4265 108.145 28.1494C108.765 27.8592 109.471 27.7141 110.262 27.7141C111.08 27.7141 111.806 27.879 112.439 28.2088C113.073 28.5386 113.561 29.0202 113.904 29.6535C114.3 29.0466 114.847 28.5716 115.546 28.2286C116.259 27.8856 117.057 27.7141 117.941 27.7141Z" fill="#F5F6F9"/>
</g>
<defs>
<filter id="filter0_d" x="0.148811" y="0" width="45.0006" height="45.3203" filterUnits="userSpaceOnUse" color-interpolation-filters="sRGB">
<feFlood flood-opacity="0" result="BackgroundImageFix"/>
<feColorMatrix in="SourceAlpha" type="matrix" values="0 0 0 0 0 0 0 0 0 0 0 0 0 0 0 0 0 0 127 0" result="hardAlpha"/>
<feOffset dy="1.06399"/>
<feGaussianBlur stdDeviation="0.425594"/>
<feColorMatrix type="matrix" values="0 0 0 0 0 0 0 0 0 0 0 0 0 0 0 0 0 0 0.5 0"/>
<feBlend mode="normal" in2="BackgroundImageFix" result="effect1_dropShadow"/>
<feBlend mode="normal" in="SourceGraphic" in2="effect1_dropShadow" result="shape"/>
</filter>
<filter id="filter1_d" x="5.21589" y="5.47806" width="34.8911" height="34.9891" filterUnits="userSpaceOnUse" color-interpolation-filters="sRGB">
<feFlood flood-opacity="0" result="BackgroundImageFix"/>
<feColorMatrix in="SourceAlpha" type="matrix" values="0 0 0 0 0 0 0 0 0 0 0 0 0 0 0 0 0 0 127 0" result="hardAlpha"/>
<feOffset dy="1.27678"/>
<feGaussianBlur stdDeviation="0.638391"/>
<feColorMatrix type="matrix" values="0 0 0 0 0 0 0 0 0 0 0 0 0 0 0 0 0 0 0.4 0"/>
<feBlend mode="normal" in2="BackgroundImageFix" result="effect1_dropShadow"/>
<feBlend mode="normal" in="SourceGraphic" in2="effect1_dropShadow" result="shape"/>
</filter>
<filter id="filter2_d" x="50.0606" y="4.2529" width="75.0795" height="17.3566" filterUnits="userSpaceOnUse" color-interpolation-filters="sRGB">
<feFlood flood-opacity="0" result="BackgroundImageFix"/>
<feColorMatrix in="SourceAlpha" type="matrix" values="0 0 0 0 0 0 0 0 0 0 0 0 0 0 0 0 0 0 127 0" result="hardAlpha"/>
<feOffset dy="1.06399"/>
<feGaussianBlur stdDeviation="0.638391"/>
<feColorMatrix type="matrix" values="0 0 0 0 0 0 0 0 0 0 0 0 0 0 0 0 0 0 0.5 0"/>
<feBlend mode="normal" in2="BackgroundImageFix" result="effect1_dropShadow"/>
<feBlend mode="normal" in="SourceGraphic" in2="effect1_dropShadow" result="shape"/>
</filter>
<filter id="filter3_d" x="51.4356" y="23.4047" width="72.0765" height="17.3962" filterUnits="userSpaceOnUse" color-interpolation-filters="sRGB">
<feFlood flood-opacity="0" result="BackgroundImageFix"/>
<feColorMatrix in="SourceAlpha" type="matrix" values="0 0 0 0 0 0 0 0 0 0 0 0 0 0 0 0 0 0 127 0" result="hardAlpha"/>
<feOffset dy="1.06399"/>
<feGaussianBlur stdDeviation="0.638391"/>
<feColorMatrix type="matrix" values="0 0 0 0 0 0 0 0 0 0 0 0 0 0 0 0 0 0 0.5 0"/>
<feBlend mode="normal" in2="BackgroundImageFix" result="effect1_dropShadow"/>
<feBlend mode="normal" in="SourceGraphic" in2="effect1_dropShadow" result="shape"/>
</filter>
</defs>
</svg>
